<svg xmlns="http://www.w3.org/2000/svg" width="204.34" height="35" viewBox="0 0 204.34 35"><rect class="svg__rect" x="0" y="0" width="75.12" height="35" fill="#BF5004"/><rect class="svg__rect" x="73.12" y="0" width="131.22" height="35" fill="#E27528"/><path class="svg__text" d="M15.00 22L13.46 22L16.68 13.47L18.01 13.47L21.24 22L19.69 22L18.99 20.01L15.69 20.01L15.00 22ZM17.34 15.28L16.10 18.82L18.58 18.82L17.34 15.28ZM32.55 22L30.58 13.47L32.05 13.47L33.38 19.88L35.01 13.47L36.25 13.47L37.86 19.89L39.17 13.47L40.64 13.47L38.67 22L37.26 22L35.63 15.77L33.98 22L32.55 22ZM50.29 22L44.72 22L44.72 13.47L50.25 13.47L50.25 14.66L46.20 14.66L46.20 17.02L49.70 17.02L49.70 18.19L46.20 18.19L46.20 20.82L50.29 20.82L50.29 22ZM57.60 22L54.49 22L54.49 13.47L57.41 13.47Q58.86 13.47 59.62 14.05Q60.37 14.63 60.37 15.78L60.37 15.78Q60.37 16.36 60.06 16.83Q59.74 17.30 59.13 17.56L59.13 17.56Q59.82 17.75 60.20 18.26Q60.58 18.78 60.58 19.51L60.58 19.51Q60.58 20.71 59.81 21.36Q59.04 22 57.60 22L57.60 22ZM55.97 18.15L55.97 20.82L57.62 20.82Q58.31 20.82 58.71 20.47Q59.10 20.13 59.10 19.51L59.10 19.51Q59.10 18.18 57.74 18.15L57.74 18.15L55.97 18.15ZM55.97 14.66L55.97 17.06L57.42 17.06Q58.12 17.06 58.51 16.75Q58.89 16.43 58.89 15.86L58.89 15.86Q58.89 15.23 58.53 14.95Q58.17 14.66 57.41 14.66L57.41 14.66L55.97 14.66Z" fill="#FFFFFF"/><path class="svg__text" d="M91.28 22L87.31 22L87.31 13.60L91.28 13.60Q92.66 13.60 93.73 14.12Q94.80 14.63 95.39 15.58Q95.97 16.53 95.97 17.80L95.97 17.80Q95.97 19.07 95.39 20.02Q94.80 20.97 93.73 21.48Q92.66 22 91.28 22L91.28 22ZM89.69 15.50L89.69 20.10L91.19 20.10Q92.26 20.10 92.92 19.49Q93.57 18.88 93.57 17.80L93.57 17.80Q93.57 16.72 92.92 16.11Q92.26 15.50 91.19 15.50L91.19 15.50L89.69 15.50ZM107.45 22L100.70 22L100.70 13.60L107.29 13.60L107.29 15.44L103.06 15.44L103.06 16.85L106.79 16.85L106.79 18.63L103.06 18.63L103.06 20.17L107.45 20.17L107.45 22ZM114.84 22L111.24 13.60L113.82 13.60L116.09 19.07L118.42 13.60L120.77 13.60L117.17 22L114.84 22ZM131.67 22L124.93 22L124.93 13.60L131.52 13.60L131.52 15.44L127.28 15.44L127.28 16.85L131.01 16.85L131.01 18.63L127.28 18.63L127.28 20.17L131.67 20.17L131.67 22ZM142.86 22L136.47 22L136.47 13.60L138.85 13.60L138.85 20.11L142.86 20.11L142.86 22ZM146.85 17.80L146.85 17.80Q146.85 16.55 147.45 15.55Q148.06 14.56 149.12 14.00Q150.18 13.43 151.51 13.43L151.51 13.43Q152.84 13.43 153.91 14.00Q154.97 14.56 155.58 15.55Q156.18 16.55 156.18 17.80L156.18 17.80Q156.18 19.05 155.58 20.04Q154.97 21.04 153.91 21.60Q152.85 22.17 151.51 22.17L151.51 22.17Q150.18 22.17 149.12 21.60Q148.06 21.04 147.45 20.04Q146.85 19.05 146.85 17.80ZM149.25 17.80L149.25 17.80Q149.25 18.51 149.55 19.05Q149.85 19.60 150.37 19.90Q150.88 20.20 151.51 20.20L151.51 20.20Q152.15 20.20 152.67 19.90Q153.18 19.60 153.48 19.05Q153.78 18.51 153.78 17.80L153.78 17.80Q153.78 17.09 153.48 16.54Q153.18 16 152.67 15.70Q152.15 15.40 151.51 15.40L151.51 15.40Q150.88 15.40 150.36 15.70Q149.85 16 149.55 16.54Q149.25 17.09 149.25 17.80ZM163.29 22L160.91 22L160.91 13.60L164.76 13.60Q165.89 13.60 166.73 13.98Q167.58 14.35 168.03 15.06Q168.49 15.76 168.49 16.71L168.49 16.71Q168.49 17.66 168.03 18.35Q167.58 19.05 166.73 19.42Q165.89 19.80 164.76 19.80L164.76 19.80L163.29 19.80L163.29 22ZM163.29 15.47L163.29 17.93L164.61 17.93Q165.34 17.93 165.72 17.61Q166.09 17.29 166.09 16.71L166.09 16.71Q166.09 16.12 165.72 15.80Q165.34 15.47 164.61 15.47L164.61 15.47L163.29 15.47ZM179.99 22L173.24 22L173.24 13.60L179.83 13.60L179.83 15.44L175.60 15.44L175.60 16.85L179.33 16.85L179.33 18.63L175.60 18.63L175.60 20.17L179.99 20.17L179.99 22ZM187.17 22L184.79 22L184.79 13.60L188.63 13.60Q189.78 13.60 190.61 13.98Q191.45 14.35 191.91 15.06Q192.37 15.76 192.37 16.71L192.37 16.71Q192.37 17.62 191.94 18.30Q191.51 18.98 190.72 19.36L190.72 19.36L192.53 22L189.99 22L188.46 19.77L187.17 19.77L187.17 22ZM187.17 15.47L187.17 17.93L188.49 17.93Q189.22 17.93 189.59 17.61Q189.96 17.29 189.96 16.71L189.96 16.71Q189.96 16.12 189.59 15.79Q189.22 15.47 188.49 15.47L188.49 15.47L187.17 15.47Z" fill="#FFFFFF" x="86.12"/></svg>