<svg xmlns="http://www.w3.org/2000/svg" width="172.38" height="35" viewBox="0 0 172.38 35"><rect class="svg__rect" x="0" y="0" width="75.72999999999999" height="35" fill="#AA1D1C"/><rect class="svg__rect" x="73.72999999999999" y="0" width="98.64999999999999" height="35" fill="#C3D5D7"/><path class="svg__text" d="M13.78 19.42L13.78 19.42L15.27 19.42Q15.27 20.15 15.75 20.55Q16.23 20.95 17.12 20.95L17.12 20.95Q17.90 20.95 18.29 20.63Q18.68 20.32 18.68 19.80L18.68 19.80Q18.68 19.24 18.28 18.94Q17.89 18.63 16.85 18.32Q15.82 18.01 15.21 17.63L15.21 17.63Q14.05 16.90 14.05 15.72L14.05 15.72Q14.05 14.69 14.89 14.02Q15.73 13.35 17.07 13.35L17.07 13.35Q17.96 13.35 18.66 13.68Q19.36 14.01 19.75 14.61Q20.15 15.22 20.15 15.96L20.15 15.96L18.68 15.96Q18.68 15.29 18.26 14.91Q17.84 14.54 17.06 14.54L17.06 14.54Q16.33 14.54 15.93 14.85Q15.53 15.16 15.53 15.71L15.53 15.71Q15.53 16.18 15.96 16.50Q16.40 16.81 17.39 17.10Q18.39 17.40 18.99 17.78Q19.60 18.16 19.88 18.65Q20.16 19.13 20.16 19.79L20.16 19.79Q20.16 20.86 19.34 21.49Q18.52 22.12 17.12 22.12L17.12 22.12Q16.20 22.12 15.42 21.77Q14.64 21.43 14.21 20.83Q13.78 20.22 13.78 19.42ZM30.03 22L24.45 22L24.45 13.47L29.98 13.47L29.98 14.66L25.93 14.66L25.93 17.02L29.43 17.02L29.43 18.19L25.93 18.19L25.93 20.82L30.03 20.82L30.03 22ZM36.52 22L33.46 13.47L35.08 13.47L37.23 20.14L39.39 13.47L41.02 13.47L37.95 22L36.52 22ZM50.55 22L44.97 22L44.97 13.47L50.51 13.47L50.51 14.66L46.46 14.66L46.46 17.02L49.96 17.02L49.96 18.19L46.46 18.19L46.46 20.82L50.55 20.82L50.55 22ZM56.23 22L54.75 22L54.75 13.47L56.23 13.47L60.04 19.54L60.04 13.47L61.51 13.47L61.51 22L60.03 22L56.23 15.95L56.23 22Z" fill="#FFFFFF"/><path class="svg__text" d="M90.12 22L87.92 22L87.92 13.60L89.87 13.60L92.83 18.45L95.71 13.60L97.66 13.60L97.69 22L95.51 22L95.48 17.55L93.32 21.17L92.27 21.17L90.12 17.67L90.12 22ZM102.42 17.80L102.42 17.80Q102.42 16.55 103.02 15.55Q103.63 14.56 104.69 14.00Q105.75 13.43 107.08 13.43L107.08 13.43Q108.41 13.43 109.48 14.00Q110.54 14.56 111.15 15.55Q111.75 16.55 111.75 17.80L111.75 17.80Q111.75 19.05 111.15 20.04Q110.54 21.04 109.48 21.60Q108.42 22.17 107.08 22.17L107.08 22.17Q105.75 22.17 104.69 21.60Q103.63 21.04 103.02 20.04Q102.42 19.05 102.42 17.80ZM104.82 17.80L104.82 17.80Q104.82 18.51 105.12 19.05Q105.42 19.60 105.94 19.90Q106.45 20.20 107.08 20.20L107.08 20.20Q107.72 20.20 108.24 19.90Q108.75 19.60 109.05 19.05Q109.35 18.51 109.35 17.80L109.35 17.80Q109.35 17.09 109.05 16.54Q108.75 16 108.24 15.70Q107.72 15.40 107.08 15.40L107.08 15.40Q106.45 15.40 105.93 15.70Q105.42 16 105.12 16.54Q104.82 17.09 104.82 17.80ZM118.81 22L116.48 22L116.48 13.60L118.44 13.60L122.15 18.07L122.15 13.60L124.47 13.60L124.47 22L122.52 22L118.81 17.52L118.81 22ZM131.43 15.48L128.85 15.48L128.85 13.60L136.37 13.60L136.37 15.48L133.80 15.48L133.80 22L131.43 22L131.43 15.48ZM143.12 22L140.74 22L140.74 13.60L143.12 13.60L143.12 16.76L146.36 16.76L146.36 13.60L148.73 13.60L148.73 22L146.36 22L146.36 18.72L143.12 18.72L143.12 22ZM153.31 21.24L153.31 21.24L154.09 19.49Q154.65 19.86 155.39 20.09Q156.14 20.32 156.86 20.32L156.86 20.32Q158.22 20.32 158.23 19.64L158.23 19.64Q158.23 19.28 157.84 19.11Q157.45 18.93 156.58 18.74L156.58 18.74Q155.63 18.53 155.00 18.30Q154.36 18.06 153.91 17.55Q153.45 17.03 153.45 16.16L153.45 16.16Q153.45 15.39 153.87 14.77Q154.29 14.15 155.13 13.79Q155.96 13.43 157.17 13.43L157.17 13.43Q158.00 13.43 158.80 13.62Q159.61 13.80 160.22 14.17L160.22 14.17L159.49 15.93Q158.29 15.28 157.16 15.28L157.16 15.28Q156.45 15.28 156.13 15.49Q155.80 15.70 155.80 16.04L155.80 16.04Q155.80 16.37 156.19 16.54Q156.57 16.71 157.42 16.89L157.42 16.89Q158.38 17.10 159.01 17.33Q159.64 17.56 160.11 18.07Q160.57 18.58 160.57 19.46L160.57 19.46Q160.57 20.21 160.15 20.83Q159.73 21.44 158.89 21.80Q158.05 22.17 156.85 22.17L156.85 22.17Q155.83 22.17 154.87 21.92Q153.91 21.67 153.31 21.24Z" fill="#AA1D1C" x="86.72999999999999"/></svg>