<svg xmlns="http://www.w3.org/2000/svg" width="141.24" height="35" viewBox="0 0 141.24 35"><rect class="svg__rect" x="0" y="0" width="45.34" height="35" fill="#3BC4F3"/><rect class="svg__rect" x="43.34" y="0" width="97.9" height="35" fill="#3C9AD5"/><path class="svg__text" d="M16.25 14.66L13.61 14.66L13.61 13.47L20.38 13.47L20.38 14.66L17.72 14.66L17.72 22L16.25 22L16.25 14.66ZM23.87 18.00L23.87 18.00L23.87 17.52Q23.87 16.28 24.31 15.32Q24.75 14.37 25.56 13.86Q26.36 13.35 27.41 13.35Q28.45 13.35 29.26 13.85Q30.06 14.35 30.50 15.29Q30.94 16.23 30.95 17.48L30.95 17.48L30.95 17.96Q30.95 19.21 30.51 20.16Q30.08 21.10 29.27 21.61Q28.47 22.12 27.42 22.12L27.42 22.12Q26.38 22.12 25.57 21.61Q24.76 21.10 24.32 20.17Q23.87 19.23 23.87 18.00ZM25.35 17.46L25.35 17.96Q25.35 19.36 25.90 20.13Q26.45 20.90 27.42 20.90L27.42 20.90Q28.40 20.90 28.93 20.15Q29.46 19.40 29.46 17.96L29.46 17.96L29.46 17.51Q29.46 16.09 28.93 15.34Q28.39 14.58 27.41 14.58L27.41 14.58Q26.45 14.58 25.90 15.33Q25.36 16.09 25.35 17.46L25.35 17.46Z" fill="#FFFFFF"/><path class="svg__text" d="M62.07 22L57.53 22L57.53 13.60L61.83 13.60Q63.43 13.60 64.27 14.19Q65.12 14.79 65.12 15.79L65.12 15.79Q65.12 16.39 64.82 16.87Q64.52 17.34 63.98 17.62L63.98 17.62Q64.71 17.87 65.11 18.41Q65.52 18.94 65.52 19.70L65.52 19.70Q65.52 20.80 64.63 21.40Q63.74 22 62.07 22L62.07 22ZM59.88 18.58L59.88 20.28L61.88 20.28Q63.12 20.28 63.12 19.43L63.12 19.43Q63.12 18.58 61.88 18.58L61.88 18.58L59.88 18.58ZM59.88 15.31L59.88 16.94L61.51 16.94Q62.71 16.94 62.71 16.12L62.71 16.12Q62.71 15.31 61.51 15.31L61.51 15.31L59.88 15.31ZM76.98 22L70.24 22L70.24 13.60L76.83 13.60L76.83 15.44L72.59 15.44L72.59 16.85L76.32 16.85L76.32 18.63L72.59 18.63L72.59 20.17L76.98 20.17L76.98 22ZM81.36 17.80L81.36 17.80Q81.36 16.54 81.96 15.54Q82.55 14.55 83.61 13.99Q84.66 13.43 85.98 13.43L85.98 13.43Q87.13 13.43 88.05 13.84Q88.98 14.25 89.59 15.02L89.59 15.02L88.08 16.39Q87.26 15.40 86.10 15.40L86.10 15.40Q85.41 15.40 84.88 15.70Q84.35 16 84.05 16.54Q83.75 17.09 83.75 17.80L83.75 17.80Q83.75 18.51 84.05 19.05Q84.35 19.60 84.88 19.90Q85.41 20.20 86.10 20.20L86.10 20.20Q87.26 20.20 88.08 19.22L88.08 19.22L89.59 20.58Q88.98 21.35 88.06 21.76Q87.13 22.17 85.98 22.17L85.98 22.17Q84.66 22.17 83.61 21.61Q82.55 21.05 81.96 20.05Q81.36 19.06 81.36 17.80ZM93.70 17.80L93.70 17.80Q93.70 16.55 94.30 15.55Q94.90 14.56 95.97 14.00Q97.03 13.43 98.36 13.43L98.36 13.43Q99.69 13.43 100.76 14.00Q101.82 14.56 102.43 15.55Q103.03 16.55 103.03 17.80L103.03 17.80Q103.03 19.05 102.43 20.04Q101.82 21.04 100.76 21.60Q99.70 22.17 98.36 22.17L98.36 22.17Q97.03 22.17 95.97 21.60Q94.90 21.04 94.30 20.04Q93.70 19.05 93.70 17.80ZM96.09 17.80L96.09 17.80Q96.09 18.51 96.40 19.05Q96.70 19.60 97.21 19.90Q97.73 20.20 98.36 20.20L98.36 20.20Q99.00 20.20 99.52 19.90Q100.03 19.60 100.33 19.05Q100.63 18.51 100.63 17.80L100.63 17.80Q100.63 17.09 100.33 16.54Q100.03 16 99.52 15.70Q99.00 15.40 98.36 15.40L98.36 15.40Q97.72 15.40 97.21 15.70Q96.70 16 96.40 16.54Q96.09 17.09 96.09 17.80ZM109.96 22L107.76 22L107.76 13.60L109.72 13.60L112.67 18.45L115.55 13.60L117.50 13.60L117.53 22L115.35 22L115.32 17.55L113.16 21.17L112.11 21.17L109.96 17.67L109.96 22ZM129.43 22L122.69 22L122.69 13.60L129.28 13.60L129.28 15.44L125.05 15.44L125.05 16.85L128.78 16.85L128.78 18.63L125.05 18.63L125.05 20.17L129.43 20.17L129.43 22Z" fill="#FFFFFF" x="56.34"/></svg>